<svg width="32" height="32" viewBox="0 0 32 32" fill="none" xmlns="http://www.w3.org/2000/svg">
<path d="M24.7925 13.5235C25.5825 14.3136 25.5825 15.5944 24.7925 16.3845C24.0025 17.1745 22.7216 17.1745 21.9315 16.3845C21.1415 15.5944 21.1415 14.3135 21.9315 13.5235C22.7216 12.7335 24.0025 12.7335 24.7925 13.5235" stroke="black" stroke-width="1.5" stroke-linecap="round" stroke-linejoin="round"/>
<path d="M18.2026 9.91236C19.4191 11.1288 19.4191 13.1011 18.2026 14.3176C16.9861 15.5341 15.0138 15.5341 13.7973 14.3176C12.5808 13.1012 12.5808 11.1289 13.7973 9.91236C15.0138 8.69588 16.9861 8.69588 18.2026 9.91236" stroke="black" stroke-width="1.5" stroke-linecap="round" stroke-linejoin="round"/>
<path d="M10.0685 13.5235C10.8585 14.3136 10.8585 15.5944 10.0685 16.3845C9.27845 17.1745 7.99756 17.1745 7.20753 16.3845C6.4175 15.5944 6.4175 14.3135 7.20753 13.5235C7.99756 12.7335 9.27845 12.7335 10.0685 13.5235" stroke="black" stroke-width="1.5" stroke-linecap="round" stroke-linejoin="round"/>
<path d="M27 23V21.904C27 20.523 25.881 19.404 24.5 19.404H23.699" stroke="black" stroke-width="1.5" stroke-linecap="round" stroke-linejoin="round"/>
<path d="M5 23V21.904C5 20.523 6.119 19.404 7.5 19.404H8.301" stroke="black" stroke-width="1.5" stroke-linecap="round" stroke-linejoin="round"/>
<path d="M21.339 23V21.399C21.339 19.466 19.772 17.899 17.839 17.899H14.16C12.227 17.899 10.66 19.466 10.66 21.399V23" stroke="black" stroke-width="1.5" stroke-linecap="round" stroke-linejoin="round"/>
</svg>
